<svg width="160" height="160" viewBox="0 0 160 160" fill="none" xmlns="http://www.w3.org/2000/svg" role="img" aria-labelledby="title desc">
  <title id="title">Study Buddy AI icon</title>
  <desc id="desc">A purple AI learning assistant icon with a graduation cap, neural nodes, and an open book.</desc>
  <defs>
    <linearGradient id="bg" x1="24" y1="16" x2="136" y2="144" gradientUnits="userSpaceOnUse">
      <stop stop-color="#1F1391"/>
      <stop offset="0.52" stop-color="#6D39D9"/>
      <stop offset="1" stop-color="#8B5CF6"/>
    </linearGradient>
    <linearGradient id="shine" x1="48" y1="30" x2="118" y2="132" gradientUnits="userSpaceOnUse">
      <stop stop-color="#FFFFFF" stop-opacity="0.96"/>
      <stop offset="1" stop-color="#E9DDFF" stop-opacity="0.9"/>
    </linearGradient>
    <filter id="shadow" x="12" y="12" width="136" height="140" filterUnits="userSpaceOnUse" color-interpolation-filters="sRGB">
      <feDropShadow dx="0" dy="10" stdDeviation="10" flood-color="#1F1391" flood-opacity="0.28"/>
    </filter>
  </defs>
  <rect x="20" y="16" width="120" height="128" rx="30" fill="url(#bg)" filter="url(#shadow)"/>
  <path d="M80 42L116 56L80 70L44 56L80 42Z" fill="url(#shine)"/>
  <path d="M57 64V78C57 85 67 91 80 91C93 91 103 85 103 78V64L80 73L57 64Z" fill="url(#shine)" opacity="0.94"/>
  <path d="M112 59V78" stroke="#E9DDFF" stroke-width="5" stroke-linecap="round"/>
  <circle cx="112" cy="84" r="5" fill="#E9DDFF"/>
  <path d="M48 105C59 98 70 98 80 105V124C70 117 59 117 48 124V105Z" fill="#F8F5FF"/>
  <path d="M80 105C90 98 101 98 112 105V124C101 117 90 117 80 124V105Z" fill="#E9DDFF"/>
  <path d="M80 103V126" stroke="#6D39D9" stroke-width="3" stroke-linecap="round"/>
  <circle cx="58" cy="30" r="4" fill="#C4B5FD"/>
  <circle cx="102" cy="34" r="4" fill="#C4B5FD"/>
  <circle cx="119" cy="99" r="4" fill="#C4B5FD"/>
  <path d="M58 30L80 42L102 34" stroke="#C4B5FD" stroke-width="2.5" stroke-linecap="round" stroke-linejoin="round" opacity="0.75"/>
  <path d="M102 34L116 56L119 99" stroke="#C4B5FD" stroke-width="2.5" stroke-linecap="round" stroke-linejoin="round" opacity="0.65"/>
</svg>
